<?xml version="1.0" encoding="utf-8"?>
<!-- Generator: Adobe Illustrator 16.0.0, SVG Export Plug-In . SVG Version: 6.00 Build 0)  -->
<!DOCTYPE svg PUBLIC "-//W3C//DTD SVG 1.1//EN" "http://www.w3.org/Graphics/SVG/1.1/DTD/svg11.dtd">
<svg version="1.1" id="Layer_1" xmlns="http://www.w3.org/2000/svg" xmlns:xlink="http://www.w3.org/1999/xlink" x="0px" y="0px"
	 width="700px" height="500px" viewBox="0 0 700 500" enable-background="new 0 0 700 500" xml:space="preserve">
<circle id="elevator-1" fill="#FFDD66" stroke="#AA8800" stroke-width="2" cx="372.573" cy="31.728" r="13"/>
<text transform="matrix(1 0 0 1 365.8457 35.7278)" font-family="'ArialMT'" font-size="11">E1</text>
<circle id="elevator-2" fill="#FFDD66" stroke="#AA8800" stroke-width="2" cx="388.118" cy="264.943" r="13"/>
<text transform="matrix(1 0 0 1 381.3906 268.9426)" font-family="'ArialMT'" font-size="11">E2</text>
<circle id="elevator-3" fill="#FFDD66" stroke="#AA8800" stroke-width="2" cx="373.875" cy="457" r="13"/>
<text transform="matrix(1 0 0 1 367.1475 461.0002)" font-family="'ArialMT'" font-size="11">E3</text>
<circle id="stair-1" fill="#EEEEEE" stroke="#222222" stroke-width="2" cx="84.495" cy="80.92" r="12"/>
<text transform="matrix(1 0 0 1 75.3252 83.9202)" font-family="'ArialMT'" font-size="10">ST1</text>
<circle id="stair-2" fill="#EEEEEE" stroke="#222222" stroke-width="2" cx="620" cy="80" r="12"/>
<text transform="matrix(1 0 0 1 610.8301 83.0002)" font-family="'ArialMT'" font-size="10">ST2</text>
<circle id="stair-3" fill="#EEEEEE" stroke="#222222" stroke-width="2" cx="109.396" cy="460.088" r="12"/>
<text transform="matrix(1 0 0 1 100.2256 463.0881)" font-family="'ArialMT'" font-size="10">ST3</text>
<circle id="store-1-1" fill="#77FFDD" stroke="#003366" stroke-width="2" cx="50.04" cy="122.55" r="15"/>
<text transform="matrix(1 0 0 1 37.3657 126.55)" font-family="'ArialMT'" font-size="12">S1-1</text>
<circle id="store-1-2" fill="#77FFDD" stroke="#003366" stroke-width="2" cx="171.411" cy="31.728" r="15"/>
<text transform="matrix(1 0 0 1 158.7373 35.7278)" font-family="'ArialMT'" font-size="12">S1-2</text>
<circle id="store-1-3" fill="#77FFDD" stroke="#003366" stroke-width="2" cx="577.234" cy="205.126" r="15"/>
<text transform="matrix(1 0 0 1 564.5615 209.1252)" font-family="'ArialMT'" font-size="12">S1-3</text>
<circle id="store-1-4" fill="#77FFDD" stroke="#003366" stroke-width="2" cx="160.998" cy="478.379" r="15"/>
<text transform="matrix(1 0 0 1 148.3242 482.3801)" font-family="'ArialMT'" font-size="12">S1-4</text>
<circle id="store-1-5" fill="#77FFDD" stroke="#003366" stroke-width="2" cx="648" cy="442.375" r="15"/>
<text transform="matrix(1 0 0 1 635.3262 446.3752)" font-family="'ArialMT'" font-size="12">S1-5</text>
<polyline id="corridor-1" opacity="0.5" fill="none" stroke="#BB3333" stroke-width="6" enable-background="new    " points="
	120,80 200,60 350,80 600,150 620,80 "/>
<polyline id="corridor-2" opacity="0.5" fill="none" stroke="#BB3333" stroke-width="6" enable-background="new    " points="
	120,80 75,150 350,250 600,150 620,80 "/>
<polyline id="corridor-3" opacity="0.5" fill="none" stroke="#BB3333" stroke-width="6" enable-background="new    " points="
	75,150 120,420 200,440 350,420 600,440 "/>
<polyline id="corridor-4" opacity="0.5" fill="none" stroke="#BB3333" stroke-width="6" enable-background="new    " points="
	350,80 350,250 350,420 "/>
<line id="corridor-5" opacity="0.5" fill="none" stroke="#BB3333" stroke-width="6" enable-background="new    " x1="600" y1="440" x2="620" y2="80"/>
<line id="corridor-6" opacity="0.5" fill="none" stroke="#BB3333" stroke-width="6" enable-background="new    " x1="120" y1="420" x2="200" y2="60"/>
<line id="corridor-7" fill="none" stroke="#BB3333" stroke-width="4" x1="176.51" y1="65.873" x2="171.411" y2="31.728"/>
<line id="corridor-8" fill="none" stroke="#BB3333" stroke-width="4" x1="84.495" y1="80.92" x2="104.514" y2="104.09"/>
<line id="corridor-9" fill="none" stroke="#BB3333" stroke-width="4" x1="50.04" y1="122.55" x2="83.004" y2="137.55"/>
<line id="corridor-10" fill="none" stroke="#BB3333" stroke-width="4" x1="135.147" y1="423.787" x2="110.375" y2="463.379"/>
<line id="corridor-11" fill="none" stroke="#BB3333" stroke-width="4" x1="179.588" y1="434.897" x2="160.998" y2="479.875"/>
<line id="corridor-12" fill="none" stroke="#BB3333" stroke-width="4" x1="378.756" y1="422.301" x2="373.875" y2="457.625"/>
<line id="corridor-13" fill="none" stroke="#BB3333" stroke-width="4" x1="601.59" y1="411.394" x2="648" y2="442.375"/>
<line id="corridor-14" fill="none" stroke="#BB3333" stroke-width="4" x1="612.652" y1="212.259" x2="577.234" y2="205.126"/>
<line id="corridor-15" fill="none" stroke="#BB3333" stroke-width="4" x1="388.118" y1="264.943" x2="378.965" y2="238.414"/>
<line id="corridor-16" fill="none" stroke="#BB3333" stroke-width="4" x1="372.573" y1="31.728" x2="370" y2="85.6"/>
</svg>
